<?xml version="1.0" standalone="no"?>
<!DOCTYPE svg PUBLIC "-//W3C//DTD SVG 1.1//EN" "http://www.w3.org/Graphics/SVG/1.1/DTD/svg11.dtd" >
<!--
2013-9-30: Created.
-->
<svg>
<metadata>
Created by iconfont
</metadata>
<defs>

<font id="iconfont" horiz-adv-x="1024" >
  <font-face
    font-family="iconfont"
    font-weight="500"
    font-stretch="normal"
    units-per-em="1024"
    ascent="896"
    descent="-128"
  />
    <missing-glyph />
    
    <glyph glyph-name="arrowright" unicode="&#58897;" d="M323.731 802.666c14.331 0 27.677-5.512 37.657-15.529l365.34-365.99c1.337-1.306 2.38-2.417 3.234-3.607l2.16-2.723c10.653-10.703 15.888-23.296 15.888-36.627 0-13.571-5.351-26.26-15.053-35.73l-367.853-363.953c-9.951-9.813-23.238-15.222-37.401-15.222-13.848 0-26.931 5.25-36.832 14.769-9.841 9.549-15.507 22.867-15.506 36.518 0 13.484 5.365 26.259 15.134 35.969l331.846 328.283-336.081 336.964c-9.607 9.666-14.915 22.296-14.915 35.619 0 13.958 5.673 27.055 15.937 36.876 9.768 9.271 22.734 14.381 36.444 14.381z"  horiz-adv-x="1024" />

    
    <glyph glyph-name="home" unicode="&#59011;" d="M862.28096 434.2c0 14.9 12.1 27 26.9 27 14.9 0 26.9-12.1 26.9-27v-433.8c0-41.5-33-75.5-74.1-75.5H181.88096c-41.1 0-74.1 34-74.1 75.5V434.6c0 14.9 12.1 27 26.9 27 14.9 0 26.9-12.1 26.9-27v-434.2c0-12.1 9.2-21.5 20.2-21.5h660.2c11 0 20.2 9.5 20.2 21.5V434.2zM42.78096 466.7c-12-8.8-28.9-6.1-37.6 5.9-8.8 12-6.1 28.9 5.9 37.7l409.3 298c56.5 41.1 132 40.9 188.2-0.5l404.4-297.5c12-8.8 14.6-25.7 5.7-37.7-8.8-12-25.7-14.6-37.7-5.7L576.78096 764.4c-37.3 27.5-87.1 27.6-124.6 0.3l-409.4-298z"  horiz-adv-x="1024" />

    
    <glyph glyph-name="refresh" unicode="&#59012;" d="M980.4 479.1c-7.9-1.2-15.7 0.9-21.8 5.3l-209.8 50.8c-16.1 3.9-26.1 20.2-22.2 36.3 3.9 16.1 20.2 26.1 36.3 22.2l166.7-40.3c-12.7 31.5-28.9 61.4-48.3 89.3C797.4 762.8 660.4 835.9 511.1 835.9c-249.1 0-451-201.9-451-451s201.9-451 451-451c163 0 310.7 87.1 390.8 225.7 8.3 14.4 26.7 19.3 41.1 11 14.4-8.3 19.3-26.7 11-41.1-90.7-157-258.2-255.7-442.8-255.7C228.8-126.2 0 102.6 0 384.9S228.8 896 511.1 896c169.2 0 324.5-82.9 419.5-219 12.2-17.5 23.4-35.8 33.3-54.7V745.7c0 16.6 13.5 30.1 30.1 30.1s30.1-13.5 30.1-30.1v-238.9c0-19.5-18.2-33.8-37.1-29.2l-6.6 1.5z"  horiz-adv-x="1024" />

    
    <glyph glyph-name="back" unicode="&#59013;" d="M774.3-75.1c11.7-11.7 11.7-30.8 0-42.5s-30.8-11.7-42.5 0L250.6 363.5c-11.7 11.7-11.7 30.8 0 42.5L731.8 887.2c11.7 11.7 30.8 11.7 42.5 0s11.7-30.8 0-42.5L314.4 384.8l459.9-459.9z"  horiz-adv-x="1024" />

    
    <glyph glyph-name="setting" unicode="&#59015;" d="M512 249.3c74.4 0 134.7 60.3 134.7 134.7 0 74.4-60.3 134.7-134.7 134.7-74.4 0-134.7-60.3-134.7-134.7 0-74.4 60.3-134.7 134.7-134.7z m0-53.9c-104.2 0-188.6 84.5-188.6 188.6S407.8 572.6 512 572.6c104.2 0 188.6-84.5 188.6-188.6S616.2 195.4 512 195.4z m-125.2 573l11.3 61.3C405.2 868.1 438.6 896 477.6 896h68.8c39 0 72.5-27.9 79.5-66.2l11.3-61.3c20-6.5 39.4-14.6 58.1-24.1l51.4 35.4c32.1 22.1 75.5 18.2 103-9.4l48.6-48.6c27.6-27.6 31.5-70.9 9.4-103l-35.4-51.4c9.5-18.7 17.6-38.1 24.1-58.1l61.3-11.3c38.4-7.1 66.2-40.5 66.2-79.5v-68.8c0-39-27.9-72.5-66.2-79.5l-61.3-11.3c-6.5-20-14.6-39.4-24.1-58.1l35.4-51.4c22.1-32.1 18.2-75.5-9.4-103l-48.6-48.6c-27.6-27.6-70.9-31.5-103-9.4l-51.4 35.4c-18.7-9.5-38.1-17.6-58.1-24.1l-11.3-61.3c-7.1-38.4-40.5-66.2-79.5-66.2h-68.8c-39 0-72.5 27.9-79.5 66.2l-11.3 61.3c-20 6.5-39.4 14.6-58.1 24.1l-51.4-35.4c-32.1-22.1-75.5-18.2-103 9.4l-48.6 48.6c-27.6 27.6-31.5 70.9-9.4 103l35.4 51.4c-9.5 18.7-17.6 38.1-24.1 58.1l-61.3 11.3C27.9 277.2 0 310.6 0 349.6v68.8c0 39 27.9 72.5 66.2 79.5l61.3 11.3c6.5 20 14.6 39.4 24.1 58.1l-35.4 51.4c-22.1 32.1-18.2 75.5 9.4 103l48.6 48.6c27.6 27.6 70.9 31.5 103 9.4l51.4-35.4c18.8 9.6 38.2 17.6 58.2 24.1z m-46.6-79l-14.7-8.3-78.8 54.3c-10.7 7.4-25.2 6.1-34.3-3.1l-48.6-48.6c-9.2-9.2-10.5-23.6-3.1-34.3l54.3-78.8-8.3-14.7c-13.8-24.4-24.5-50.4-32.1-77.4l-4.5-16.2-94-17.3C63.3 442.6 54 431.5 54 418.5v-68.8c0-13 9.3-24.2 22.1-26.5l94-17.3 4.5-16.2c7.6-27.1 18.3-53 32.1-77.4l8.3-14.7-54.3-78.8c-7.4-10.7-6.1-25.2 3.1-34.3l48.6-48.6c9.2-9.2 23.6-10.5 34.3-3.1l78.8 54.3 14.7-8.3c24.4-13.8 50.4-24.5 77.4-32.1l16.2-4.5 17.3-94c2.4-12.8 13.5-22.1 26.5-22.1h68.8c13 0 24.2 9.3 26.5 22.1l17.3 94 16.2 4.5c27.1 7.6 53 18.3 77.4 32.1l14.7 8.3 78.8-54.3c10.7-7.4 25.2-6.1 34.3 3.1l48.6 48.6c9.2 9.2 10.5 23.6 3.1 34.3L809 197.6l8.3 14.7c13.8 24.4 24.5 50.4 32.1 77.4l4.5 16.2 94 17.3c12.8 2.4 22.1 13.5 22.1 26.5v68.8c0 13-9.3 24.2-22.1 26.5l-94 17.3-4.5 16.2c-7.6 27.1-18.3 53-32.1 77.4l-8.3 14.7 54.3 78.8c7.4 10.7 6.1 25.2-3.1 34.3l-48.6 48.6c-9.2 9.2-23.6 10.5-34.3 3.1l-78.8-54.3-14.7 8.3c-24.4 13.8-50.4 24.5-77.4 32.1l-16.2 4.5-17.3 94c-2.4 12.8-13.5 22.1-26.5 22.1h-68.8c-13 0-24.2-9.3-26.5-22.1l-17.3-94-16.2-4.5c-27.1-7.6-53-18.4-77.4-32.1z"  horiz-adv-x="1024" />

    
    <glyph glyph-name="max" unicode="&#59016;" d="M85.3 722.8v-682.7h853.3V722.8H85.3z m0 85.3h853.3c47.1 0 85.3-38.2 85.3-85.3v-682.7c0-47.1-38.2-85.3-85.3-85.3H85.3C38.2-45.2 0-7 0 40.1V722.8c0 47.1 38.2 85.3 85.3 85.3z"  horiz-adv-x="1024" />

    
    <glyph glyph-name="min" unicode="&#59017;" d="M42.7 458.7h938.7c23.6 0 42.7-19.1 42.7-42.7s-19.1-42.7-42.7-42.7H42.7C19.1 373.3 0 392.4 0 416s19.1 42.7 42.7 42.7z"  horiz-adv-x="1024" />

    
    <glyph glyph-name="close" unicode="&#59018;" d="M511.975001 460.296275L931.854499 880.175773c21.09897 21.09897 55.2973 21.09897 76.296275 0 21.09897-21.09897 21.09897-55.2973 0-76.296275L588.271276 384l419.879498-419.879498c21.09897-21.09897 21.09897-55.2973 0-76.296275-21.09897-21.09897-55.2973-21.09897-76.296275 0L511.975001 307.703725 92.095503-112.175773c-21.09897-21.09897-55.2973-21.09897-76.296274 0-21.09897 21.09897-21.09897 55.2973 0 76.296275L435.678727 384 15.799229 803.879498C-5.299741 824.978468-5.299741 859.176798 15.799229 880.175773c21.09897 21.09897 55.2973 21.09897 76.296274 0L511.975001 460.296275z"  horiz-adv-x="1024" />

    
    <glyph glyph-name="reduce" unicode="&#59019;" d="M938.7 128V725.3h-768c0 47.1 38.2 85.3 85.3 85.3h682.7c47.1 0 85.3-38.2 85.3-85.3v-512c0-47.1-38.2-85.3-85.3-85.3zM85.3 554.7v-512H768v512H85.3z m0 85.3H768c47.1 0 85.3-38.2 85.3-85.3v-512c0-47.1-38.2-85.3-85.3-85.3H85.3C38.2-42.7 0-4.5 0 42.7v512C0 601.8 38.2 640 85.3 640z"  horiz-adv-x="1024" />

    
    <glyph glyph-name="category" unicode="&#59020;" d="M852.9 349.9c-20.2 0-36.6 15.3-36.6 34.1s16.4 34.1 36.6 34.1c20.2 0 36.6-15.3 36.6-34.1s-16.4-34.1-36.6-34.1z m-109.7 0c-20.2 0-36.6 15.3-36.6 34.1s16.4 34.1 36.6 34.1c20.2 0 36.6-15.3 36.6-34.1s-16.4-34.1-36.6-34.1z m-692 136.5h921.6c28.3 0 51.2-22.9 51.2-51.2v-102.4c0-28.3-22.9-51.2-51.2-51.2H51.2C22.9 281.6 0 304.5 0 332.8V435.2c0 28.3 22.9 51.2 51.2 51.2z m0-51.2v-102.4h921.6V435.2H51.2z m801.7 170.7c-20.2 0-36.6 15.3-36.6 34.1s16.4 34.1 36.6 34.1c20.2 0 36.6-15.3 36.6-34.1s-16.4-34.1-36.6-34.1z m-219.5 0c-20.2 0-36.6 15.3-36.6 34.1s16.4 34.1 36.6 34.1S670 658.9 670 640s-16.4-34.1-36.6-34.1z m109.8 0c-20.2 0-36.6 15.3-36.6 34.1s16.4 34.1 36.6 34.1c20.2 0 36.6-15.3 36.6-34.1s-16.4-34.1-36.6-34.1z m-692 136.5h921.6c28.3 0 51.2-22.9 51.2-51.2v-102.4c0-28.3-22.9-51.2-51.2-51.2H51.2C22.9 537.6 0 560.5 0 588.8V691.2c0 28.3 22.9 51.2 51.2 51.2z m0-51.2v-102.4h921.6V691.2H51.2z m801.7-597.3c-20.2 0-36.6 15.3-36.6 34.1s16.4 34.1 36.6 34.1c20.2 0 36.6-15.3 36.6-34.1s-16.4-34.1-36.6-34.1z m-219.5 0c-20.2 0-36.6 15.3-36.6 34.1s16.4 34.1 36.6 34.1S670 146.9 670 128s-16.4-34.1-36.6-34.1z m109.8 0c-20.2 0-36.6 15.3-36.6 34.1s16.4 34.1 36.6 34.1c20.2 0 36.6-15.3 36.6-34.1s-16.4-34.1-36.6-34.1z m-692 136.5h921.6c28.3 0 51.2-22.9 51.2-51.2v-102.4c0-28.3-22.9-51.2-51.2-51.2H51.2C22.9 25.6 0 48.5 0 76.8V179.2c0 28.3 22.9 51.2 51.2 51.2z m0-51.2v-102.4h921.6V179.2H51.2z"  horiz-adv-x="1024" />

    
    <glyph glyph-name="video-" unicode="&#59021;" d="M416 241.9l222.2 148.7L416 539.3v-297.4zM352 603c0 28.2 26.9 45.8 48.2 31.5l317.5-212.4c21.1-14.1 21.1-48.9 0-63L400.2 146.7c-21.3-14.3-48.2 3.3-48.2 31.5V603zM128 895.1h768c70.7 0 128-65.4 128-146v-730.2c0-80.7-57.3-146-128-146H128c-70.7 0-128 65.4-128 146V749.1C0 829.7 57.3 895.1 128 895.1z m0-73c-35.3 0-64-32.7-64-73v-730.2c0-40.3 28.7-73 64-73h768c35.3 0 64 32.7 64 73V749.1c0 40.3-28.7 73-64 73H128z"  horiz-adv-x="1024" />

    
    <glyph glyph-name="find" unicode="&#59022;" d="M821 25.2c-13.2 13.2-13.2 34.6 0 47.8 13.2 13.2 34.6 13.2 47.8 0L1012-70.3c13.2-13.2 13.2-34.6 0-47.8-13.2-13.2-34.6-13.2-47.8 0L821 25.2z m-379.9 60.2c205.2 0 371.5 166.3 371.5 371.5S646.3 828.4 441.1 828.4C236 828.4 69.6 662.1 69.6 456.9S236 85.4 441.1 85.4z m0-67.6c-242.5 0-439 196.6-439 439.1S198.6 896 441.1 896s439.1-196.6 439.1-439.1-196.6-439.1-439.1-439.1z"  horiz-adv-x="1024" />

    
    <glyph glyph-name="time" unicode="&#59023;" d="M758.8 210.5c13.1-10.2 15.5-29.1 5.3-42.3-10.2-13.1-29.1-15.5-42.3-5.3L493.5 340.1c-7.4 5.7-11.7 14.5-11.7 23.8V685.2c0 16.6 13.5 30.1 30.1 30.1s30.1-13.5 30.1-30.1v-306.5l216.8-168.2zM512-67.8c249.5 0 451.8 202.3 451.8 451.8S761.5 835.8 512 835.8 60.2 633.5 60.2 384 262.5-67.8 512-67.8z m0-60.2C229.2-128 0 101.2 0 384S229.2 896 512 896s512-229.2 512-512-229.2-512-512-512z"  horiz-adv-x="1024" />

    
    <glyph glyph-name="nav-arrowdown-" unicode="&#59024;" d="M434.1 104.8L33.7 505.2c-43.6 43.6-43.6 114.3 0 157.9 20.9 20.9 49.3 32.7 78.9 32.7h800.7c61.7 0 111.6-50 111.6-111.6 0-29.6-11.8-58-32.7-78.9L591.9 104.8c-43.6-43.6-114.2-43.6-157.8 0z"  horiz-adv-x="1024" />

    
    <glyph glyph-name="arrowup" unicode="&#59025;" d="M79.5 118.4c-18.2-18.2-47.6-18.2-65.8 0s-18.2 47.6 0 65.8l465.5 465.5c18.2 18.2 47.6 18.2 65.8 0l465.5-465.5c18.2-18.2 18.2-47.6 0-65.8-18.2-18.2-47.6-18.2-65.8 0L512 550.9 79.5 118.4z"  horiz-adv-x="1024" />

    
    <glyph glyph-name="arrowdown" unicode="&#59026;" d="M79.5 649.6c-18.2 18.2-47.6 18.2-65.8 0-18.2-18.2-18.2-47.6 0-65.8l465.5-465.5c18.2-18.2 47.6-18.2 65.8 0l465.5 465.5c18.2 18.2 18.2 47.6 0 65.8-18.2 18.2-47.6 18.2-65.8 0L512 217.1 79.5 649.6z"  horiz-adv-x="1024" />

    
    <glyph glyph-name="delete" unicode="&#59027;" d="M113.8 560.4c-1.8 18.2 11.4 34.3 29.6 36.2 18.2 1.8 34.3-11.4 36.2-29.6l60.1-599.2c1.7-16.9 15.9-29.7 32.9-29.7h475c17 0 31.2 12.9 32.9 29.7l60 599.2c1.8 18.2 18 31.4 36.2 29.6 18.2-1.8 31.4-18 29.6-36.2l-60.1-599.2c-5.1-50.6-47.7-89.2-98.6-89.2h-475c-50.9 0-93.5 38.6-98.6 89.2l-60.2 599.2z m528.3-60.8c18.2 0 33-14.8 33-33v-396.4c0-18.2-14.8-33-33-33s-33 14.8-33 33V466.6c0 18.2 14.8 33 33 33z m-264.2 0c18.2 0 33-14.8 33-33v-396.4c0-18.2-14.8-33-33-33s-33 14.8-33 33V466.6c-0.1 18.2 14.7 33 33 33z m-99.1 198.2h462.5V796.9c0 18.2-14.8 33-33 33H311.8c-18.2 0-33-14.8-33-33v-99.1z m-66.1 0V796.9c0 54.7 44.4 99.1 99.1 99.1h396.4c54.7 0 99.1-44.4 99.1-99.1v-99.1h165.2c18.2 0 33-14.8 33-33s-14.8-33-33-33h-925c-18.2 0-33 14.8-33 33s14.8 33 33 33h165.2z"  horiz-adv-x="1024" />

    
    <glyph glyph-name="devicesound" unicode="&#59028;" d="M849.6 679.2c-12.6 17.4-8.8 41.7 8.6 54.3 17.4 12.6 41.7 8.8 54.3-8.6C986.6 622.8 1024 511.2 1024 391.1c0-120.1-37.4-231.7-111.5-333.8-12.6-17.4-36.9-21.2-54.3-8.6s-21.2 36.9-8.6 54.3c64.7 89 96.7 184.7 96.7 288.1s-32.1 199.1-96.7 288.1z m-158.3-99.1c-10.1 18.9-2.9 42.5 16 52.6 18.9 10.1 42.5 2.9 52.6-16 37.6-70.4 56.4-146.3 56.4-227.2 0-81-18.9-156-56.7-224.5-10.4-18.8-34-25.6-52.8-15.3-18.8 10.4-25.6 34-15.3 52.8 31.3 56.9 47 119 47 187 0 68.1-15.7 131.5-47.2 190.6z m-411.6 64.2l126.5 90.3c46.6 33.3 111.3 22.5 144.6-24.1 12.5-17.6 19.3-38.6 19.3-60.2v-532.4c0-57.2-46.4-103.7-103.7-103.7-21.3 0-42 6.5-59.4 18.7L273.9 126H155.5C69.6 126 0 195.6 0 281.5V488.8c0 85.9 69.6 155.5 155.5 155.5h124.2z m171.7 27L304.6 566.5H155.5c-42.9 0-77.7-34.8-77.7-77.7v-207.3c0-42.9 34.8-77.7 77.7-77.7h142.9l153.2-107.2c4.4-3 9.5-4.7 14.9-4.7 14.3 0 25.9 11.6 25.9 25.9V650.2c0 5.4-1.7 10.7-4.8 15.1-8.4 11.6-24.6 14.3-36.2 6z"  horiz-adv-x="1024" />

    
    <glyph glyph-name="pasue" unicode="&#59029;" d="M739.8 845.4c0 28 22.7 50.6 50.6 50.6S841 873.3 841 845.4v-922.8c0-28-22.7-50.6-50.6-50.6s-50.6 22.7-50.6 50.6V845.4z m-556.8 0c0 28 22.7 50.6 50.6 50.6s50.6-22.7 50.6-50.6v-922.8c0-28-22.7-50.6-50.6-50.6s-50.6 22.7-50.6 50.6V845.4z"  horiz-adv-x="1024" />

    
    <glyph glyph-name="play" unicode="&#59030;" d="M242.003678 884.886201l603.091784-480.493454c26.099644-20.799717 25.299655-60.699173-1.599978-80.398905l-603.091784-442.093977c-33.399545-24.499666-80.498903-0.599992-80.498903 40.799444V845.286741c-0.099999 42.399422 48.899334 65.999101 82.098881 39.59946z m18.999741-862.388251l469.193608 343.895315L261.003419 740.288171v-717.790221z"  horiz-adv-x="1024" />

    
    <glyph glyph-name="upload" unicode="&#59031;" d="M68.3 250.9v-307.2h887.5V250.9c0 18.9 15.3 34.1 34.1 34.1 18.9 0 34.1-15.3 34.1-34.1v-307.2c0-37.7-32.7-68.3-68.3-68.3H68.3C32.7-124.6 0-94 0-56.3V250.9C0 269.7 15.3 285 34.1 285s34.2-15.3 34.2-34.1zM546.1 797.4v-614.8c0-18.9-15.3-34.1-34.1-34.1-18.9 0-34.1 15.3-34.1 34.1V783L253.7 558.8c-13.3-13.3-34.9-13.3-48.3 0-13.3 13.3-13.3 34.9 0 48.3L470.9 872.6c26.7 26.7 69.9 26.7 96.5 0L833 607.1c13.3-13.3 13.3-34.9 0-48.3-13.3-13.3-34.9-13.3-48.3 0L546.1 797.4z"  horiz-adv-x="1024" />

    
    <glyph glyph-name="download" unicode="&#59032;" d="M68.3 250.6v-307.2h887.5V250.6c0 18.9 15.3 34.1 34.1 34.1 18.9 0 34.1-15.3 34.1-34.1v-307.2c0-37.7-32.7-68.3-68.3-68.3H68.3c-35.5 0-68.3 30.6-68.3 68.3V250.6c0 18.9 15.3 34.1 34.1 34.1s34.2-15.2 34.2-34.1zM477.3 274.9V860.6c0 18.9 15.3 34.1 34.1 34.1 18.9 0 34.1-15.3 34.1-34.1v-586.2L777.2 506c13.3 13.3 34.9 13.3 48.3 0 13.3-13.3 13.3-34.9 0-48.3L560 192.2c-26.7-26.7-69.9-26.7-96.5 0L197.9 457.7c-13.3 13.3-13.3 34.9 0 48.3 13.3 13.3 34.9 13.3 48.3 0l231.1-231.1z"  horiz-adv-x="1024" />

    
    <glyph glyph-name="arrow-left" unicode="&#59033;" d="M118.402718 424.196187l748.994828 467.096775c20.29986 10.599927 45.299687 2.699981 55.899614-17.699877 3.099979-5.899959 4.699968-12.499914 4.699968-19.099868v-941.093503c0-22.899842-18.599872-41.399714-41.399714-41.399714-6.699954 0-13.199909 1.599989-19.099868 4.699968l-748.89483 473.996727c-20.29986 10.599927-28.199805 35.599754-17.699878 55.899614 3.799974 7.499948 9.899932 13.699905 17.49988 17.599878z"  horiz-adv-x="1024" />

    
    <glyph glyph-name="arrow-right" unicode="&#59034;" d="M905.597282 343.803813l-748.894829-467.096775c-20.29986-10.599927-45.299687-2.699981-55.899614 17.699877-3.099979 5.899959-4.699968 12.499914-4.699968 19.099868V854.600286C96.102871 877.400128 114.602744 896 137.502586 896c6.699954 0 13.199909-1.599989 19.099868-4.699968l748.894829-473.996727c20.29986-10.599927 28.199805-35.599754 17.699878-55.899614-3.899973-7.499948-9.999931-13.699905-17.599879-17.599878z"  horiz-adv-x="1024" />

    
    <glyph glyph-name="point" unicode="&#59035;" d="M702.3 336.6l320.3-320.3-142.9-142.9-320.3 320.3L404.8-128 0 896l1024-404.8z"  horiz-adv-x="1024" />

    
    <glyph glyph-name="easer" unicode="&#59036;" d="M501.100505 884.97666l476.277953-274.987271c39.198186-22.698949 52.697561-72.79663 29.998611-112.094811L717.090507-4.882149c-67.996852-117.694552-218.489886-158.092682-336.184439-90.09583L46.721537 98.013088C7.423356 120.612042-5.976023 170.809718 16.622931 210.007904L389.005693 854.978049c22.598954 39.198186 72.79663 52.697561 112.094812 29.998611zM167.915927 308.003368L87.71964 169.009802l334.18453-192.891072c77.396417-44.697931 176.191844-19.099116 222.289711 56.997362L167.915927 308.003368z m40.998103 70.996713l476.277953-274.987271 251.088377 434.979866L460.002407 813.879951 208.91403 379.000081z"  horiz-adv-x="1024" />

    
    <glyph glyph-name="rectclear" unicode="&#59037;" d="M571.8-97.3H457.1V-7h114.7v-90.3z m0 993.3v-90.3H457.1V896h114.7zM0 212.1h90.3v-173.9c0-24.9 20.2-45.1 45.1-45.1h186.2v-90.3H90.3C40.4-97.3 0-56.8 0-7V212.1z m0 388.7V805.7C0 855.6 40.4 896 90.3 896h231.3v-90.3H135.4c-24.9 0-45.1-20.2-45.1-45.1v-159.8H0z m0-141.9h90.3v-111.4H0V458.9z m993.3 141.9H903V760.6c0 24.9-20.2 45.1-45.1 45.1H707.3V896H903c49.9 0 90.3-40.4 90.3-90.3v-204.9z m0-141.9v-111.4H903V458.9h90.3zM832.4 123.3l119.5 119.5c16.5 16.5 43.2 16.5 59.7 0s16.5-43.2 0-59.7L892.2 63.6l119.5-119.5c16.5-16.5 16.5-43.2 0-59.7s-43.2-16.5-59.7 0L832.4 3.8 713-115.6c-16.5-16.5-43.2-16.5-59.7 0s-16.5 43.2 0 59.7l119.5 119.5L653.2 183c-16.5 16.5-16.5 43.2 0 59.7s43.2 16.5 59.7 0l119.5-119.4z"  horiz-adv-x="1024" />

    
    <glyph glyph-name="guangbi" unicode="&#59038;" d="M626.71583 715.4c12.4-21.4 5-48.8-16.4-61.2l-77.6-44.8c-21.4-12.4-48.8-5-61.2 16.4-12.4 21.4-5 48.8 16.4 61.2l77.6 44.8c21.4 12.4 48.8 5.1 61.2-16.4zM6.01583 715.4c12.4 21.4 39.8 28.8 61.2 16.4l77.6-44.8c21.4-12.4 28.8-39.8 16.4-61.2-12.4-21.4-39.8-28.8-61.2-16.4l-77.6 44.8C1.01583 666.6-6.38417 694 6.01583 715.4z m0-358.3c-12.4 21.4-5 48.8 16.4 61.2l77.6 44.8c21.4 12.4 48.8 5 61.2-16.4 12.4-21.4 5-48.8-16.4-61.2l-77.6-44.8c-21.4-12.4-48.8-5-61.2 16.4z m310.3-179.2c-24.7 0-44.8 20.1-44.8 44.8v89.6c0 24.7 20.1 44.8 44.8 44.8s44.8-20.1 44.8-44.8v-89.6c0-24.7-20-44.8-44.8-44.8z m0 716.7c24.7 0 44.8-20.1 44.8-44.8v-89.6c0-24.7-20.1-44.8-44.8-44.8s-44.8 20.1-44.8 44.8V849.8c0 24.7 20.1 44.8 44.8 44.8z m493.8-712.3l213-213-95-95-213 213-102.8-213.9-269.3 681 681-269.2-213.9-102.9z"  horiz-adv-x="1024" />

    
    <glyph glyph-name="circle" unicode="&#59039;" d="M512-128C229.2-128 0 101.2 0 384S229.2 896 512 896s512-229.2 512-512-229.2-512-512-512z m0 78.8c239.3 0 433.2 194 433.2 433.2S751.3 817.2 512 817.2 78.8 623.3 78.8 384 272.7-49.2 512-49.2z"  horiz-adv-x="1024" />

    
    <glyph glyph-name="pen" unicode="&#59040;" d="M796.493385 884.676453c40.399061-23.299458 54.298737-74.998256 30.899282-115.397316l-43.098998-74.698264L637.99707 779.078909l43.098998 74.698263c23.299458 40.399061 74.998256 54.19874 115.397317 30.899281zM643.696938 704.580641l73.198298-42.199019c20.19953-11.699728 27.09937-37.499128 15.499639-57.698658L331.604195-89.500895l-78.198182-34.799191c-21.299505-9.499779-46.298923 0.099998-55.798703 21.399502-1.799958 3.999907-2.99993 8.399805-3.399921 12.799703l-8.899793 85.098021L585.998279 689.081001c11.699728 20.19953 37.499128 27.09937 57.698659 15.49964z"  horiz-adv-x="1024" />

    
    <glyph glyph-name="text" unicode="&#59041;" d="M84.5 896h855.7l8.1-257.4h-36.2c-17.8 80.9-40.3 133.5-67.7 157.9-27.4 24.4-84.9 36.6-172.7 36.6H566.8V58c0-58.7 9.1-95 27.4-109.1s88.6-23.3 150.2-27.7v-49.2H254.9v49.2c64.1 4.9 137.7 15.5 153.5 31.8 15.8 16.3 23.7 57.2 23.7 122.8V833.1h-79.8c-83.8 0-140.9-12.1-171.2-36.2-30.3-24.2-53.1-76.9-68.4-158.3h-37L84.5 896z"  horiz-adv-x="1024" />

    
    <glyph glyph-name="channel" unicode="&#59042;" d="M73.1 201.1v73.1h899.5v-73.1H73.1z m0 292.6v73.1h899.5v-73.1H73.1zM512-128c-141.4 0-256 229.2-256 512S370.6 896 512 896s256-229.2 256-512-114.6-512-256-512z m0 73.1c87.2 0 182.9 191.3 182.9 438.9S599.2 822.9 512 822.9 329.1 631.6 329.1 384 424.8-54.9 512-54.9z m0-73.1C229.2-128 0 101.2 0 384S229.2 896 512 896s512-229.2 512-512-229.2-512-512-512z m0 73.1c242.4 0 438.9 196.5 438.9 438.9S754.4 822.9 512 822.9 73.1 626.4 73.1 384 269.6-54.9 512-54.9z"  horiz-adv-x="1024" />

    
    <glyph glyph-name="sound" unicode="&#59043;" d="M215.5 620.3c55.9 53.5 157.9 129.8 306.1 228.8 33.6 22.4 101.6 11.6 101.6-63.5v-806.5c0-40.4-20.5-70.5-60.9-70.5-14.5 0-28.6 4.3-40.6 12.3-148.2 99-250.2 175.2-306.1 228.8H73.1C32.7 149.7 0 182.4 0 222.8V547.1c0 40.4 32.7 73.1 73.1 73.1h142.4z m50.6-52.8l-21.2-20.3H73.1v-324.3h171.8l21.2-20.3c52-49.8 138.2-125.4 283.1-222.1V786.9c-144.9-96.8-231.1-169.6-283.1-219.4z m546.8 124.4c-12.8 15.6-10.6 38.6 5 51.5s38.6 10.6 51.5-5C971.8 613.7 1024 496.4 1024 386c0-106.5-52-223.6-154.2-351.9-12.6-15.8-35.6-18.4-51.4-5.8-15.8 12.6-18.4 35.6-5.8 51.4C905.4 196.2 950.9 298.5 950.9 386c0 91.2-45.4 193.3-138 305.9zM704.2 507.8c-13.5 15-12.2 38.2 2.8 51.6 15 13.5 38.2 12.2 51.6-2.8 54.2-60.4 82.5-117 82.5-170.7 0-76.8-27.8-146.4-82.5-207.3-13.5-15-36.6-16.3-51.6-2.8s-16.3 36.6-2.8 51.6C747.1 275.3 768 327.6 768 386c0 32.6-20.5 73.6-63.8 121.8z"  horiz-adv-x="1024" />

    
    <glyph glyph-name="videodisablesound" unicode="&#59044;" d="M225.4 631.1c58.4 56 165.1 135.7 320.1 239.2 35.1 23.5 106.2 12.1 106.2-66.4v-843.3c0-42.2-21.5-73.7-63.7-73.7-15.1 0-29.9 4.5-42.5 12.9C390.5 3.3 283.8 83 225.4 139H76.5C34.2 139 0 173.2 0 215.5V554.6c0 42.2 34.2 76.5 76.5 76.5h148.9zM904.6 413l54.1 54.1c14.9 14.9 39.1 14.9 54.1 0 14.9-14.9 14.9-39.1 0-54.1l-54.1-54.1 54.1-54.1c14.9-14.9 14.9-39.1 0-54.1-14.9-14.9-39.1-14.9-54.1 0l-54.1 54.1-54.1-54.1c-14.9-14.9-39.1-14.9-54.1 0-14.9 14.9-14.9 39.1 0 54.1l54.1 54.1-54 54.1c-14.9 14.9-14.9 39.1 0 54.1 14.9 14.9 39.1 14.9 54.1 0l54-54.1zM278.3 575.8l-22.2-21.3H76.5v-339.1h179.6l22.2-21.3c54.4-52.1 144.5-131.1 296-232.3V805.3C422.8 704.1 332.7 628 278.3 575.8z"  horiz-adv-x="1024" />

    
    <glyph glyph-name="suoxiao" unicode="&#59045;" d="M393.8 214.1L122.9-56.8c-15.4-15.4-40.3-15.4-55.7 0-15.4 15.4-15.4 40.3 0 55.7l267 267H39.4C17.6 265.8 0 283.5 0 305.2s17.6 39.4 39.4 39.4h393.8c21.8 0 39.4-17.6 39.4-39.4v-393.8c0-21.8-17.6-39.4-39.4-39.4s-39.4 17.6-39.4 39.4V214.1z m236.4 347.7l267 267c15.4 15.4 40.3 15.4 55.7 0 15.4-15.4 15.4-40.3 0-55.7l-271-270.9h302.7c21.8 0 39.4-17.6 39.4-39.4s-17.6-39.4-39.4-39.4H590.8c-21.8 0-39.4 17.6-39.4 39.4V856.6C551.4 878.4 569 896 590.8 896s39.4-17.6 39.4-39.4v-294.8z"  horiz-adv-x="1024" />

    
    <glyph glyph-name="videomax" unicode="&#59046;" d="M945.2 765.5L674.3 494.6c-15.4-15.4-40.3-15.4-55.7 0-15.4 15.4-15.4 40.3 0 55.7l267 267H590.8c-21.8 0-39.4 17.6-39.4 39.4S569 896 590.8 896h393.8c21.8 0 39.4-17.6 39.4-39.4v-393.8c0-21.8-17.6-39.4-39.4-39.4-21.8 0-39.4 17.6-39.4 39.4V765.5zM78.8 10.4l267 267c15.4 15.4 40.3 15.4 55.7 0 15.4-15.4 15.4-40.3 0-55.7l-271-270.9h302.7c21.8 0 39.4-17.6 39.4-39.4S455-128 433.2-128H39.4C17.6-128 0-110.4 0-88.6V305.2c0 21.8 17.6 39.4 39.4 39.4s39.4-17.6 39.4-39.4v-294.8z"  horiz-adv-x="1024" />

    
    <glyph glyph-name="videofresh" unicode="&#59047;" d="M512 826.2c-210.8-1.7-390.1-154-425.9-361.7H0l118.2-161 118.2 161h-70.3c36 162.4 179.5 278.2 345.8 279.3 102.9-0.2 200.5-45.4 267.2-123.8l15.4 3.7h80.1C796.5 749 659.6 825.5 512 826.2z m0-803.9c-118.7 0.3-229.3 60.3-294.2 159.7h-93.1c72.9-147.2 223-240.3 387.3-240.2 226.3 2 413.6 176.5 431.5 402.2h80.5L905.8 504.6 787.5 344h76.8c-18-181.5-169.9-320.2-352.3-321.7z"  horiz-adv-x="1024" />

    
    <glyph glyph-name="stickup" unicode="&#59048;" d="M526.575 182.4L814.075 469.9l51.5-28.7c18.4-10.3 41.8-7.2 57 8l9.4 9.4c18.6 18.6 18.6 48.9 0 67.5L657.775 800.2c-18.6 18.6-48.9 18.6-67.5 0l-9.4-9.4c-15.2-15.2-18.3-38.5-8-57l28.7-51.5L314.075 394.9l-202.7 9.6 424.8-424.8-9.6 202.7z m-234.1-69.6L66.775-112.9c-15.3-15.3-40-15.3-55.3 0-15.3 15.3-15.3 40 0 55.3L237.275 168 56.075 349.2c-30.5 30.5-30.5 80 0 110.5 15.6 15.6 37 23.8 59 22.8l168.2-8 221.4 221.4c-26.7 47.9-19.7 109.5 21 150.2l9.4 9.4c49.2 49.2 128.9 49.2 178 0l274.1-274.1c49.2-49.2 49.2-128.9 0-178l-9.4-9.4c-40.7-40.7-102.3-47.7-150.2-21L606.275 151.6l8-168.2c2-43.1-31.2-79.7-74.4-81.8-22-1-43.4 7.2-59 22.8L292.475 112.8z"  horiz-adv-x="1024" />

    
    <glyph glyph-name="changerole" unicode="&#59049;" d="M448 384c123.7 0 224 100.3 224 224S571.7 832 448 832 224 731.7 224 608s100.3-224 224-224z m436.5-192L809 267.5c-12 12-12 31.5 0 43.5s31.5 12 43.5 0l123-123c9.8-5.5 16.5-16 16.5-28v-0.6c0.2-8.1-2.8-16.2-9-22.4-6.2-6.2-14.3-9.2-22.4-9H512c-17.7 0-32 14.3-32 32s14.3 32 32 32h372.5z m-297-192l75.5-75.5c12-12 12-31.5 0-43.5s-31.5-12-43.5 0l-123 123c-9.8 5.5-16.5 16-16.5 28v0.6c-0.2 8.1 2.8 16.2 9 22.4 6.2 6.2 14.3 9.2 22.4 9H960c17.7 0 32-14.3 32-32s-14.3-32-32-32H587.5zM304.1 358.5C218 408.2 160 501.3 160 608 160 767.1 288.9 896 448 896s288-128.9 288-288c0-106.7-58-199.8-144.1-249.5 27.5-10.1 53.6-23.1 78-38.5 13.1-13.5 13.1-27.6 0-42.4-13.1-14.8-27.7-16.7-43.8-5.9C573.8 302.4 513 320 448 320c-183.6 0-334.4-140.6-350.6-320H96v-32c0-17.7-14.3-32-32-32s-32 14.3-32 32v32h1.2c12.6 165.2 121.6 303.4 270.9 358.5z"  horiz-adv-x="1024" />

    
    <glyph glyph-name="close-class" unicode="&#59050;" d="M68.3 827.7v-887.5H512c18.9 0 34.1-15.3 34.1-34.1 0-18.9-15.3-34.1-34.1-34.1H34.1C15.3-128 0-112.7 0-93.9V861.9C0 880.7 15.3 896 34.1 896H512c18.9 0 34.1-15.3 34.1-34.1S530.9 827.7 512 827.7H68.3z m394.5-409.6h527.1c18.9 0 34.1-15.3 34.1-34.1 0-18.9-15.3-34.1-34.1-34.1H462.8L671.6 141c14.7-14.7 14.7-38.5 0-53.2-14.7-14.7-38.5-14.7-53.2 0l-266 266.1c-7.8 7.8-11.5 18.2-11 28.4V384v1.7c-0.5 10.2 3.2 20.6 11 28.4l266.1 266.1c14.7 14.7 38.5 14.7 53.2 0 14.7-14.7 14.7-38.5 0-53.2L462.8 418.1z"  horiz-adv-x="1024" />

    
    <glyph glyph-name="check" unicode="&#59051;" d="M238.9-59.7H785c18.9 0 34.1-15.3 34.1-34.1 0-18.9-15.3-34.1-34.1-34.1H238.9c-18.9 0-34.1 15.3-34.1 34.1s15.3 34.1 34.1 34.1z m-108.2 512c-18.9 0-34.1 15.3-34.1 34.1 0 18.9 15.3 34.1 34.1 34.1h128.2c12 0 23-6.3 29.2-16.5l50-82.9 105.8 216.7c12.7 26.1 50.2 25.4 61.9-1.2l124.3-281.3 94.1 149.2c6.3 9.9 17.2 15.9 28.9 15.9h139.3c18.9 0 34.1-15.3 34.1-34.1 0-18.9-15.3-34.1-34.1-34.1H771.9L653.7 264.8c-14.6-23.1-49.1-20.6-60.1 4.4L473.1 542 372 334.9c-11.9-24.3-45.9-25.8-59.9-2.7l-72.4 120h-109zM136.5 896h750.9C962.9 896 1024 834.9 1024 759.5v-614.4c0-75.4-61.1-136.5-136.5-136.5h-751C61.1 8.5 0 69.7 0 145.1V759.5C0 834.9 61.1 896 136.5 896z m0-68.3c-37.7 0-68.3-30.6-68.3-68.3V145c0-37.7 30.6-68.3 68.3-68.3h750.9c37.7 0 68.3 30.6 68.3 68.3V759.5c0 37.7-30.6 68.3-68.3 68.3H136.5z"  horiz-adv-x="1024" />

    
    <glyph glyph-name="beautyface" unicode="&#59052;" d="M397.2-96.6c-17.5 7-26 26.9-18.9 44.4s26.9 26 44.4 18.9c87.5-35.2 169-35.2 246.6-0.5 17.2 7.7 37.4 0 45.1-17.2 7.7-17.2 0-37.4-17.2-45.1-95-42.4-195.7-42.4-300-0.5zM204.4 418.8l-48.3 146.6-122.3 58 122.3 58.1 48.3 146.8 48.3-146.8L375 623.4l-122.3-58-48.3-146.6z m717.6 0c0 264.4-138.6 409-311.3 409-94.9 0-164.7-17.4-210-50.6-15.2-11.2-36.6-7.9-47.7 7.3-11.2 15.2-7.9 36.6 7.3 47.7C418.9 875.2 502.5 896 610.7 896c211.1 0 379.5-175.8 379.5-477.2V-59c0-18.8-15.3-34.1-34.1-34.1-167.1-0.1-246.3 132.1-238.7 376.4 0.6 18.8 16.3 33.6 35.2 33 18.8-0.6 33.6-16.3 33-35.2C779.7 91.6 825.4-4.6 922-22V418.8zM308 145.7v273c0 19.8 16.8 35.4 36.5 34 246.6-17.4 350.3 39.3 337.8 167.4-1.8 18.8 11.9 35.5 30.7 37.3 18.8 1.8 35.5-11.9 37.3-30.7 17-174.4-115.4-254.9-374-244.2v-236.9c0-130.1-90.2-238.9-239.5-238.9-18.8 0-34.1 15.3-34.1 34.1V383.5c0 18.8 15.3 34.1 34.1 34.1s34.1-15.3 34.1-34.1v-405.7C258.3-8 308 61.3 308 145.7z"  horiz-adv-x="1024" />

    
    <glyph glyph-name="disablebeautifulface" unicode="&#59053;" d="M963 844.5c13.3-13.3 13.3-34.9 0-48.3L142.5-24.3c-13.3-13.3-34.9-13.3-48.3 0-13.3 13.3-13.3 34.9 0 48.3L914.8 844.5c13.3 13.3 34.9 13.3 48.2 0zM397.2-96.6c-17.5 7-26 26.9-18.9 44.4s26.9 26 44.4 18.9c87.5-35.2 169-35.2 246.6-0.5 17.2 7.7 37.4 0 45.1-17.2 7.7-17.2 0-37.4-17.2-45.1-95-42.4-195.7-42.4-300-0.5zM204.4 418.8l-48.3 146.6-122.3 58 122.3 58.1 48.3 146.8 48.3-146.8L375 623.4l-122.3-58-48.3-146.6zM759.7 786c-44.2 27.6-94.9 41.8-149 41.8-94.9 0-164.7-17.4-210-50.6-15.2-11.2-36.6-7.9-47.7 7.3-11.2 15.2-7.9 36.6 7.3 47.7C418.9 875.2 502.5 896 610.7 896c72.9 0 140.7-21 198.2-60.8L759.7 786z m127.6-162l51.8 51.8c32.6-70.6 51.2-156.8 51.2-257V-59c0-18.8-15.3-34.1-34.1-34.1-167.2-0.1-246.4 132.1-238.8 376.4 0.6 18.8 16.3 33.6 35.2 33 18.8-0.6 33.6-16.3 33-35.2C779.7 91.6 825.4-4.6 922-22V418.8c0 79.4-12.5 148-34.7 205.2zM102.7 129V383.5c0 18.8 15.3 34.1 34.1 34.1s34.1-15.3 34.1-34.1v-186.3L102.7 129zM374 110.7L172.3-91c115.2 14.3 188.3 98 201.7 201.7z m-66 223.6v84.5c0 19.8 16.8 35.4 36.5 34 28.2-2 54.5-3 78.9-3.1L308 334.3z"  horiz-adv-x="1024" />

    
    <glyph glyph-name="disablecamera" unicode="&#59054;" d="M930.3 843.9c13.3-13.3 13.3-34.9 0-48.3L109.6-25c-13.3-13.3-34.9-13.3-48.3 0-13.3 13.3-13.3 34.9 0 48.3L882 843.9c13.3 13.3 34.9 13.3 48.3 0z m-518-373.2c-1.2 5-1.8 10.3-1.8 15.7 0 37.7 30.6 68.3 68.3 68.3 5.4 0 10.6-0.6 15.7-1.8l-82.2-82.2zM295.2 353.6c-13.6 30.1-21.2 63.5-21.2 98.6 0 132 107 238.9 238.9 238.9 35.2 0 68.6-7.6 98.6-21.2l-53.2-53.2c-14.5 4-29.7 6.1-45.5 6.1-94.3 0-170.7-76.4-170.7-170.7 0-15.7 2.1-31 6.1-45.5l-53-53z m157.1-132.5l60.5 60.5h0.1c94.3 0 170.7 76.4 170.7 170.7v0.1l60.5 60.5c5.1-19.4 7.8-39.7 7.8-60.6 0-132-107-238.9-238.9-238.9-21.1-0.1-41.4 2.6-60.7 7.7z m-307-17.4c-48 70.9-76.1 156.5-76.1 248.6C69.2 697.3 267.8 896 512.9 896 605 896 690.5 867.9 761.5 819.9l-49.3-49.3c-57.7 36.2-126 57.2-199.2 57.2-207.4 0-375.5-168.1-375.5-375.5 0-73.2 20.9-141.5 57.2-199.2l-49.4-49.4zM296.2 65l50.5 50.5c50.1-24.8 106.5-38.7 166.2-38.7 207.4 0 375.5 168.1 375.5 375.5 0 59.7-13.9 116.1-38.7 166.2l50.5 50.5c35.9-64.1 56.4-138 56.4-216.7 0-233.6-180.5-425-409.6-442.4v-69.6h239c18.9 0 34.1-15.3 34.1-34.1 0-18.9-15.3-34.1-34.1-34.1H239.8c-18.9 0-34.1 15.3-34.1 34.1 0 18.9 15.3 34.1 34.1 34.1h238.9v69.6c-65.9 4.9-127.8 24.4-182.5 55.1z"  horiz-adv-x="1024" />

    
    <glyph glyph-name="camera" unicode="&#59055;" d="M477.9 418.1c37.7 0 68.3 30.6 68.3 68.3s-30.6 68.3-68.3 68.3-68.3-30.6-68.3-68.3 30.6-68.3 68.3-68.3zM512 281.6c94.3 0 170.7 76.4 170.7 170.7S606.3 622.9 512 622.9s-170.7-76.4-170.7-170.7S417.7 281.6 512 281.6z m0-68.3c-132 0-238.9 107-238.9 238.9 0 132 107 238.9 238.9 238.9s238.9-107 238.9-238.9S644 213.3 512 213.3z m0-136.5c207.4 0 375.5 168.1 375.5 375.5S719.4 827.8 512 827.8 136.5 659.6 136.5 452.3c0-207.4 168.1-375.5 375.5-375.5z m34.1-136.5H785c18.9 0 34.1-15.3 34.1-34.1 0-18.9-15.3-34.1-34.1-34.1H238.9c-18.9 0-34.1 15.3-34.1 34.1 0 18.9 15.3 34.1 34.1 34.1h238.9v69.6C248.7 27.3 68.3 218.7 68.3 452.3 68.3 697.3 266.9 896 512 896s443.7-198.7 443.7-443.7c0-233.6-180.5-425-409.6-442.4v-69.6z"  horiz-adv-x="1024" />

    
    <glyph glyph-name="disablemai" unicode="&#59056;" d="M929.4 843.9c13.3-13.3 13.3-34.9 0-48.3L108.8-25c-13.3-13.3-34.9-13.3-48.3 0-13.3 13.3-13.3 34.9 0 48.3L881.2 843.9c13.3 13.3 34.9 13.3 48.2 0zM477.9-59.7v68.3h68.3v-68.3h238.9c18.9 0 34.1-15.3 34.1-34.1 0-18.9-15.3-34.1-34.1-34.1H239c-18.9 0-34.1 15.3-34.1 34.1 0 18.9 15.3 34.1 34.1 34.1h238.9zM751 520.6V384c0-132-107-238.9-238.9-238.9-39.6 0-77 9.6-109.9 26.7l51.7 51.7c18.2-6.6 37.8-10.2 58.2-10.2 94.3 0 170.7 76.4 170.7 170.7v68.4l68.2 68.2z m-32.6 257.1L667.8 727c-26.7 59.4-86.4 100.7-155.7 100.7-94.3 0-170.7-76.4-170.7-170.7v-256.4L277.8 337c-3 15.2-4.6 30.9-4.6 47V657.1C273.1 789 380.1 896 512.1 896c88 0 164.8-47.5 206.3-118.3z m-366.3-656c46.6-28.5 101.4-44.9 160-44.9 169.7 0 307.2 137.5 307.2 307.2v68.2c0 18.9 15.3 34.1 34.1 34.1 18.9 0 34.1-15.3 34.1-34.1V384c0-207.4-168.1-375.5-375.5-375.5-77.5 0-149.6 23.5-209.4 63.8l49.5 49.4zM222.4 281.6L170 229.2c-21.4 47.2-33.3 99.6-33.3 154.8v68.2c0 18.9 15.3 34.1 34.1 34.1s34.1-15.3 34.1-34.1V384c0-35.9 6.1-70.4 17.5-102.4z"  horiz-adv-x="1024" />

    
    <glyph glyph-name="mai" unicode="&#59057;" d="M512 827.7c-94.3 0-170.7-76.4-170.7-170.7v-273c0-94.3 76.4-170.7 170.7-170.7S682.7 289.7 682.7 384V657.1c0 94.2-76.4 170.6-170.7 170.6zM512 896c132 0 238.9-107 238.9-238.9V384c0-132-107-238.9-238.9-238.9S273.1 252 273.1 384V657.1C273.1 789 380 896 512 896z m-34.1-955.7v68.3h68.3v-68.3h238.9c18.9 0 34.1-15.3 34.1-34.1 0-18.9-15.3-34.1-34.1-34.1H238.9c-18.9 0-34.1 15.3-34.1 34.1 0 18.9 15.3 34.1 34.1 34.1h239zM136.5 418.1v34.1c0 18.9 15.3 34.1 34.1 34.1s34.1-15.3 34.1-34.1V384c0-169.7 137.5-307.2 307.2-307.2S819.2 214.3 819.2 384v68.2c0 18.9 15.3 34.1 34.1 34.1 18.9 0 34.1-15.3 34.1-34.1V384c0-207.4-168.1-375.5-375.5-375.5S136.5 176.6 136.5 384v34.1z"  horiz-adv-x="1024" />

    
    <glyph glyph-name="disable-fill-chat" unicode="&#59058;" d="M230.127114 536.734558c-14.198634 0-25.697528-11.498894-25.697528-25.697528s11.498894-25.697528 25.697528-25.697528h205.280254c14.198634 0 25.697528 11.498894 25.697528 25.697528s-11.498894 25.697528-25.697528 25.697528H230.127114z m-22.297855-461.855573h-4.699548c-84.991825 0-153.985188 68.893373-153.985188 153.985188V639.42468c0 84.991825 68.893373 153.985188 153.985188 153.985188h488.153044L415.00933 382.849361H230.127114c-14.198634 0-25.697528-11.498894-25.697528-25.697528s11.498894-25.697528 25.697528-25.697529h150.385534L207.829259 74.878985z m410.960469 307.970376l-34.996634-51.295066h159.484659c14.198634 0 25.697528 11.498894 25.697528 25.697528s-11.498894 25.697528-25.697528 25.697528H618.789728z m-209.879812-307.970376l-125.387938-183.982303c-13.298721-19.598115-40.196133-24.797615-59.994229-11.598884-19.798096 13.19873-24.997595 39.796172-11.698875 59.394287L851.367356 877.101818c13.298721 19.598115 40.196133 24.797615 59.994229 11.598884 19.798096-13.19873 24.997595-39.796172 11.698875-59.394287l-34.996634-51.395056c51.395056-24.997595 86.791651-77.592536 86.791651-138.586669v-410.560508c0-84.991825-68.893373-153.985188-153.985188-153.985188H620.589555L512-87.105434l-102.19017 161.984419h-0.899914z"  horiz-adv-x="1024" />

    
    <glyph glyph-name="fill-chat" unicode="&#59059;" d="M231.7 382c-14.1 0-25.6-11.5-25.6-25.6 0-14.1 11.5-25.6 25.6-25.6h512.1c14.1 0 25.6 11.5 25.6 25.6 0 14.1-11.5 25.6-25.6 25.6H231.7z m0 153.6c-14.1 0-25.6-11.5-25.6-25.6 0-14.1 11.5-25.6 25.6-25.6h204.9c14.1 0 25.6 11.5 25.6 25.6 0 14.1-11.5 25.6-25.6 25.6H231.7z m389.7-460.9L513-87 411 74.7H204.7c-84.9 0-153.6 68.8-153.6 153.6V638c0 84.9 68.8 153.6 153.6 153.6h616.5c84.9 0 153.6-68.8 153.6-153.6v-409.7c0-84.9-68.8-153.6-153.6-153.6H621.4z"  horiz-adv-x="1024" />

    
    <glyph glyph-name="eacharrow" unicode="&#59060;" d="M852.01324 588.8L731.21324 709.6c-19.2 19.2-19.2 50.4 0 69.6 19.2 19.2 50.4 19.2 69.6 0l196.8-196.8c15.8-8.7 26.4-25.5 26.4-44.8v-1c0.3-12.9-4.5-25.9-14.4-35.8-9.9-9.9-22.9-14.7-35.8-14.4H51.21324C22.91324 486.4 0.01324 509.3 0.01324 537.6s22.9 51.2 51.2 51.2H852.01324zM172.01324 179.2l120.8-120.8c19.2-19.2 19.2-50.4 0-69.6-19.2-19.2-50.4-19.2-69.6 0L26.41324 185.6C10.71324 194.3 0.01324 211.1 0.01324 230.4v1c-0.3 12.9 4.5 25.9 14.4 35.8 9.9 9.9 22.9 14.7 35.8 14.4h922.6c28.3 0 51.2-22.9 51.2-51.2 0-28.3-22.9-51.2-51.2-51.2H172.01324z"  horiz-adv-x="1024" />

    
    <glyph glyph-name="trumpet" unicode="&#59061;" d="M900.3 727.2c38.1-23.8 71-57.3 94.3-102.3 23.4-45 31.9-90.7 28.9-134.8-1.7-26.6-7-47-11.7-58.9-3.3-8.6-13.4-13-22.3-9.5-8.8 3.4-13.1 13.1-9.6 21.7 0.8 2.1 2.2 6.3 3.7 12.6 2.6 10.7 4.7 23 5.6 36.4 2.6 38.4-4.8 78.2-25.3 117.4-20.4 39.3-49 68.5-82.1 89.2-11.5 7.2-22.8 12.9-33.3 17.1-6.1 2.5-10.6 3.9-12.7 4.4-9.2 2.4-14.6 11.5-12.2 20.6 2.3 8.9 11.8 14.4 21.1 11.9 12.6-3.5 32.7-11.5 55.6-25.8zM816 662.1c7.4-2.6 18.6-8.3 31.8-17.7 21.4-15.9 40.4-37.2 54.9-64.9 14.4-27.7 20.8-55.2 21.1-81.5 0.2-16.1-1.8-28.3-3.9-35.7-2.6-8.9-12.2-14-21.4-11.4-9.1 2.5-14.4 11.9-11.8 20.7 1.3 4.4 2.7 13.5 2.6 25.9-0.2 21.3-5.4 43.9-17.3 66.8-12 22.9-27.4 40.4-44.9 53.1-10.4 7.5-18.6 11.7-23 13.2-8.8 3.2-13.4 12.8-10.2 21.6 3.3 8.5 13.1 13 22.1 9.9zM710.8 247.3c13.4 5.2 18.4 110.1-38.9 240.3C614.6 617.9 527.2 701.2 513.8 696c-13.2-5.3-20.5-124.5 36.7-254.7 57.4-130.2 147-199.3 160.3-194z m25.8 271.8c73.7-167.6 85.8-337.5 25.9-361.5-77.6-30.6-120.2 106.9-348 83.7-33.1-3.5-55.9-24.5-45.2-50.2 7.9-19.1 35.3-79.5 43.6-98.2 8.4-18.8 37.9-23.7 45.1-39.7 6.6-14.9 1.5-33.9-20.3-42-21.8-8.1-78.7-29.1-95.5-35.5-16.7-6.3-39.8 14.9-50 37.7-10.2 22.9-40.1 90.2-53.9 121.1-11.5 25.7-43.8 1.7-74.7 42.4 0 0-27.5-8.6-34.9-11.8C85.6 147.9 26.5 189 8.4 230c-18.1 41.1-7.2 109.7 36.1 126.9 500.4 198.8 337.9 393.2 439.7 433.7 60 23.8 178.6-103.7 252.4-271.5z"  horiz-adv-x="1024" />

    
    <glyph glyph-name="line" unicode="&#59062;" d="M0 423.4h1024v-78.8H0z"  horiz-adv-x="1024" />

    
    <glyph glyph-name="linearrow" unicode="&#59063;" d="M150.2 422.8H1024V344H151.4l182.8-182.8c30.8-30.8 30.8-80.6 0-111.4L40 344h-0.6v0.6L0 384l334.2 334.2c30.8-30.8 30.8-80.6 0-111.4l-184-184z"  horiz-adv-x="1024" />

    
    <glyph glyph-name="rectangle" unicode="&#59064;" d="M0 896h1024v-1024H0V896z m78.8-78.8v-866.5h866.5V817.2H78.8z"  horiz-adv-x="1024" />

    
    <glyph glyph-name="star" unicode="&#59065;" d="M512 63.4L195.6-102.9 256 249.4 0 499l353.8 51.4L512 870.9l158.2-320.6L1024 499 768 249.4 828.4-103 512 63.4z m0 93.6l206.4-108.5L679 278.3l167 162.8-230.8 33.5L512 683.8 408.8 474.7 178 441.1l167-162.8-39.4-229.9L512 157z"  horiz-adv-x="1024" />

    
    <glyph glyph-name="triangle" unicode="&#59066;" d="M512 896l512-1024H0L512 896zM127.5-49.2h769.1L512 719.9 127.5-49.2z"  horiz-adv-x="1024" />

    
    <glyph glyph-name="chat" unicode="&#59067;" d="M242.5 357.1h538.9c14.9 0 26.9-12.1 26.9-26.9 0-14.9-12.1-26.9-26.9-26.9H242.5c-14.9 0-26.9 12.1-26.9 26.9 0 14.8 12 26.9 26.9 26.9z m0 269.4h215.6c14.9 0 26.9-12.1 26.9-26.9s-12.1-26.9-26.9-26.9H242.5c-14.9 0-26.9 12.1-26.9 26.9s12 26.9 26.9 26.9z m380-539.5h203c91.5 0 144.7 53.9 144.7 138.7V649.5c0 84.8-57.3 138.7-144.7 138.7H198.6c-91.4 0-144.7-53.9-144.7-138.7v-423.8C53.9 141 104.2 87 198.6 87h203.9l74.6-79.5c21.2-20.7 33.2-38.8 69.3 0l76.1 79.5z m24.2-53.9l-93.3-88.3c-14.2-19.6-61.6-30.1-82.8 0l-93.3 88.3H161.7C72.4 33.1 0 105.5 0 194.9V680.3C0 769.7 72.4 842.1 161.7 842.1h700.6c89.3 0 161.7-72.4 161.7-161.8v-485.4c0-89.4-72.4-161.8-161.7-161.8H646.7z"  horiz-adv-x="1024" />

    
    <glyph glyph-name="rank" unicode="&#59068;" d="M377.3 842.1h269.5c29.8 0 53.9-24.1 53.9-53.9v-862.3H323.4V788.2c0 29.8 24.1 53.9 53.9 53.9z m0-862.3h269.5V788.2H377.3v-808.4z m592.8 0V303.3c-4.1 41.8-17.1 53.9-53.9 53.9H646.7v53.9h269.5c68.8 0 107.8-36.2 107.8-107.8v-377.4H646.7v53.9h323.4z m-916.2 0h323.4v-53.9H0v485c0 71.6 39 107.8 107.8 107.8h269.5v-53.9H107.8c-36.8 0-49.7-12.1-53.9-53.9v-431.1z"  horiz-adv-x="1024" />

    
    <glyph glyph-name="zml" unicode="&#59069;" d="M203.5-25.6h617.1V640L666.3 793.6H203.5v-819.2zM100.6 896h617l205.7-204.8V-128H100.6V896z m565.7-102.4L820.5 640H666.3V793.6zM357.7 163.7v50.6l212.1 264.1c15.1 18.8 29.4 35 42.9 48.9h-231V576h296.6v-48.6l-232.4-286-25.2-29h264.4v-48.6l-327.4-0.1z"  horiz-adv-x="1024" />

    
    <glyph glyph-name="word" unicode="&#59070;" d="M203.5-25.6h617.1V640L666.3 793.6H203.5v-819.2zM100.6 896h617l205.7-204.8V-128H100.6V896z m565.7-102.4L820.5 640H666.3V793.6zM385.5 179.2l-79.2 307.2H368c32.9-149.7 51.2-234.2 54.7-253.6l62.2 253.6h56.9l63.8-253.6c3.9 19.4 22.1 103.9 54.7 253.6h57.4l-75.5-307.2h-73.3c-32.9 139.3-51.5 219.5-55.8 240.7l-56.8-240.7h-70.8z"  horiz-adv-x="1024" />

    
    <glyph glyph-name="pdf" unicode="&#59071;" d="M203.5-25.6h617.1V640L666.3 793.6H203.5v-819.2zM100.6 896h617l205.7-204.8V-128H100.6V896z m565.7-102.4L820.5 640H666.3V793.6z m-383.4-665c-11.1 0-19.1 4.3-23.9 12.7-4.4 7.6-5.3 18-2.6 29 3 12.7 10.6 24.3 23.8 36.3 16.4 14.9 40.5 30 67.9 42.3 13.7 6.2 30 12.6 47.6 18.8 20.4 29.5 49.4 76 70.3 127.2 2.3 5.8 4.6 11.6 6.7 17.5-5.4 11.7-10 23.9-13.7 36.3-5.1 16.3-8.7 33-10.7 50-1.5 13.9-1.2 27.9 0.8 41.8 1.9 13.5 5.2 23 10.2 30.1 6.4 8.7 14.9 13 21 15.1 4.7 1.6 8.1 2 10.4 2.2 4.4 0.7 9.6 1.6 16.4-0.3 4.2-1.2 8.3-3.3 12.8-5.8l0.1 0.2c20.4-9 18.5-24.7 15.8-46.5l-1.1-9.1c-2.9-25.9-11.4-67.9-26.3-111.8 1.2-2.2 2.4-4.5 3.7-6.7 11.2-19.6 27.3-42.2 46.7-65.1 9.8-11.5 19.9-22.7 30.4-33.6 34.1 2.3 68.5-0.3 101.8-7.9 17.9-4.1 30.8-8.8 41.9-15.3 14-8.2 24.9-19.2 30.5-31 6.4-13.2 6.7-28.4 0.6-40.4-3.7-7.3-11.9-17.3-30-22.8-13.1-3.9-27-3.9-40.1-0.1-12.8 3.6-27.7 11.1-44.6 22.2-18.2 12.2-35.3 26-51.2 41.1-7.7 7.1-15.2 14.3-22.6 21.7-12.2-1.3-25.7-3.2-42.8-6.1-39.2-6.5-77.7-16-115.3-28.5l-4.9-6.9c-26.3-36.3-51.8-64.7-74-82.3-16.9-13.4-32.6-21-47.8-23.3-2.5-0.7-5.1-1-7.8-1z m76.5 90.8c-30.6-14.3-48.1-28-55.9-35.1-10.8-9.9-13.4-16.3-14.5-20.9-0.2-0.9-0.4-1.8-0.6-2.8 8.3 2 17.9 7.3 28.6 15.8 9.8 7.7 24 20.9 42.4 43z m260.8 59.1l1.7-1.6c17.3-16.2 31.8-27.8 46.9-37.8 13.7-9 25.8-15.1 34.8-17.7 7.3-2 13.8-2 20.4-0.1 3.5 1.1 8.3 3.1 9.9 6.4 1.5 3 1.9 8.7-0.9 14.3-2.9 6.1-9.4 12.4-17.8 17.3-7.9 4.7-17.8 8.2-32.1 11.4-20.6 4.8-41.7 7.4-62.9 7.8z m-126.6 96.7c-13.9-31.9-30.2-62.8-48.7-92.2l4 1.1c25.7 7 51.7 12.7 78 17 8.1 1.4 15.4 2.6 22.2 3.5-5.5 6.1-11.1 12.4-16.4 18.7-14.1 16.5-27.1 33.8-39.1 51.9z m3.9 182.4l-2.6-0.8c-1-0.1-2-0.3-3-0.6-1.9-0.6-3.6-1.7-4.9-3.2-1-1.5-3.2-5.8-4.7-16.8-1.7-11.4-1.9-23.1-0.6-34.6 1.1-10.7 3.5-23 7.4-36.8 6.7 25.7 10.8 48.5 12.6 64.6l1.1 9.3c0.7 5.8 1.4 11.8 1.5 15.3-2.2 1.4-4.5 2.6-6.8 3.6z"  horiz-adv-x="1024" />

    
    <glyph glyph-name="ppt" unicode="&#59072;" d="M203.5-25.6h617.1V640L666.3 793.6H203.5v-819.2zM100.6 896h617.1l205.7-204.8V-128H100.6V896z m565.7-102.4L820.6 640H666.3V793.6zM407.6 179.2V556h114.7c84.3 0 144.5-28.7 144.5-113.7 0-82.4-60.2-120.3-142.4-120.3h-57.1v-142.8h-59.7z m59.7 190.5h51.4c60.6 0 89.4 23 89.4 72.7s-31.3 66-91.5 66h-49.4l0.1-138.7z"  horiz-adv-x="1024" />

    
    <glyph glyph-name="error" unicode="&#59073;" d="M512 896c282.8 0 512-229.2 512-512s-229.2-512-512-512S0 101.2 0 384 229.2 896 512 896z m219.6-665.2L578.4 384l153.2 153.2c18.3 18.3 18.3 48.1 0 66.4-18.3 18.3-48.1 18.3-66.4 0L512 450.4 358.8 603.6c-18.3 18.3-48.1 18.3-66.4 0-18.3-18.3-18.3-48.1 0-66.4L445.6 384 292.4 230.8c-18.3-18.3-18.3-48.1 0-66.4 18.3-18.3 48.1-18.3 66.4 0L512 317.6l153.2-153.2c18.3-18.3 48.1-18.3 66.4 0s18.3 48.1 0 66.4z"  horiz-adv-x="1024" />

    
    <glyph glyph-name="closeeye" unicode="&#59074;" d="M903.15676 460.5l87.3-89.9c14.1-14.7 14.1-37.9 0-52.6-13.5-14.1-35.9-14.5-50-1l-1 1-91.1 93.9c-48.5-39.5-97.8-70-147.8-91.5L754.05676 163.9c6.2-19-3.6-39.6-22.4-46.6-18.7-6.6-39.1 3.2-45.7 21.9v0.1l-53.8 157.5c-68.2-18-139.8-19.4-208.7-4-0.1-2.2-0.5-4.5-1-6.7L384.05676 127.7c-4.4-19.4-23.7-31.6-43.1-27.2-0.2 0.1-0.5 0.1-0.7 0.2-19.5 5.4-31.2 25.4-26.2 45.1l38.4 158.4c0.8 3.1 1.9 6.1 3.4 8.9-50.7 19.6-98.6 45.8-142.6 77.7l-0.6-0.6-96.1-114.6c-12.5-15.1-34.8-17.2-49.8-4.7-0.4 0.3-0.7 0.6-1 0.9-15.1 13.6-16.7 36.7-3.7 52.3l93.7 111.7c-51.9 44.8-99.9 93.9-143.5 146.8-11.8 14.2-15.4 33.6-9.4 51.1C8.65676 651 23.25676 664 41.15676 667.6c17.8 3.4 36.1-3.2 47.6-17.2C237.35676 472.7 381.15676 386.2 520.05676 386.2c138.2 0 276.4 85.9 414.5 262.8 16.9 21.5 48 25.3 69.5 8.4l1.2-0.9c21.6-17.8 25.1-50.2 8-72.6-33.8-43.7-70.6-84.9-110.1-123.4z"  horiz-adv-x="1024" />

    
    <glyph glyph-name="openeye" unicode="&#59075;" d="M985.6 502.3c51.2-67.9 51.2-168.7 0-236.7C869.5 111.7 701 14.2 512 14.2c-188.3 0-357.6 97.5-473.6 251.4-51.2 67.9-51.2 168.7 0 236.7C154.5 656.3 323 753.8 512 753.8s358.3-97.5 473.6-251.5zM512.7 148.7c131.7 0 238.9 105.5 238.9 235.3 0 129.7-107.2 235.3-238.9 235.3S273.8 513.8 273.8 384c0-129.7 107.2-235.3 238.9-235.3z m0 403.4c94.2 0 170.6-75.3 170.6-168.1s-76.5-168.1-170.6-168.1S342.1 291.2 342.1 384c0 92.7 76.4 168.1 170.6 168.1z"  horiz-adv-x="1024" />

    
    <glyph glyph-name="zmg" unicode="&#59076;" d="M717.7 896H100.6v-1024h822.7V691.2L717.7 896z m102.9-921.6H203.5V793.6h462.8L820.6 640v-665.6zM666.3 793.6L820.6 640H666.3V793.6zM675.2 190.9c-23.4-8.4-69.6-22.2-124.2-22.2-61.2 0-111.6 15.6-151.2 53.4-34.8 33.6-56.4 87.6-56.4 150.6 0.6 120.6 83.4 208.7 218.9 208.7 46.8 0 83.4-10.2 100.8-18.6l-12.6-42.6c-21.6 9.6-48.6 17.4-89.4 17.4-98.4 0-162.5-61.2-162.5-162.5 0-102.6 61.8-163.1 155.9-163.1 34.2 0 57.6 4.8 69.6 10.8V343.3H542v42h133.2v-194.4z"  horiz-adv-x="1024" />

    
    <glyph glyph-name="wrong" unicode="&#59077;" d="M512 896c282.8 0 512-229.2 512-512s-229.2-512-512-512S0 101.2 0 384 229.2 896 512 896z m0-804.6c40.4 0 73.2 32.8 73.2 73.2 0 40.4-32.8 73.2-73.2 73.2-40.4 0-73.1-32.8-73.1-73.2 0-40.4 32.7-73.2 73.1-73.2z m0 219.4c40.4 0 73.2 32.8 73.2 73.2V676.6c0 40.4-32.8 73.2-73.2 73.2s-73.2-32.8-73.2-73.2V384c0-40.4 32.8-73.2 73.2-73.2z"  horiz-adv-x="1024" />

    
    <glyph glyph-name="vote" unicode="&#59078;" d="M93.1 383.7c-0.2-231.2 187.1-418.8 418.4-418.9 213.4-0.1 392.8 160.3 416.4 372.4H465.2V799.7c-209.3-23.1-372.1-200.6-372.1-416z m930.3 46.5v-46.5c0-282.6-229.1-511.7-511.7-511.7S0.1 101.1 0.1 383.7 229.1 895.3 511.7 895.3h46.5v-465.2h465.2zM697.8 569.7h230.3c-7.4 77.4-29.5 132.4-63.8 167.1-34.1 34.4-89 56.5-166.5 63.6v-230.7zM604.8 895.3c150 5.7 258.5-25.4 325.6-93 67.1-67.7 98.1-176.2 93-325.6H604.8V895.3z"  horiz-adv-x="1024" />

    
    <glyph glyph-name="yingshiping" unicode="&#59079;" d="M636.995413-64.002349h162.994018c17.69935 0 31.998826-14.299475 31.998826-31.998825s-14.299475-31.998826-31.998826-31.998826H224.010569c-17.69935 0-31.998826 14.299475-31.998826 31.998826s14.299475 31.998826 31.998826 31.998825h162.994018c25.999046 45.798319 38.998569 88.396756 38.998569 127.995303v73.697295C219.310741 185.188506 90.215479 391.180946 137.813732 597.873361S391.304429 933.661038 597.996844 886.162781s335.687681-253.590693 288.189424-460.283108C853.287475 282.484936 741.391582 170.589042 597.996844 137.690249V63.992954c0-40.698506 12.999523-83.296943 38.998569-127.995303zM512 223.987082c123.69546 0 223.99178 100.296319 223.99178 223.99178S635.69546 671.970642 512 671.970642 288.00822 571.674322 288.00822 447.978862s100.296319-223.99178 223.99178-223.99178z m0 63.997652c88.396756 0 159.994128 71.597372 159.994128 159.994128s-71.597372 159.994128-159.994128 159.994128-159.994128-71.597372-159.994128-159.994128 71.597372-159.994128 159.994128-159.994128z m223.99178 351.987082c17.69935 0 31.998826 14.299475 31.998825 31.998826s-14.299475 31.998826-31.998825 31.998825-31.998826-14.299475-31.998826-31.998825 14.299475-31.998826 31.998826-31.998826z"  horiz-adv-x="1024" />

    
    <glyph glyph-name="tool" unicode="&#59080;" d="M512-49.2c239.3 0 433.2 194 433.2 433.2S751.3 817.2 512 817.2 78.8 623.3 78.8 384 272.7-49.2 512-49.2z m0-78.8C229.2-128 0 101.2 0 384S229.2 896 512 896s512-229.2 512-512-229.2-512-512-512zM213.2 738.5l668.4-668.4-55.6-55.7-668.5 668.3 55.7 55.8z"  horiz-adv-x="1024" />

    
    <glyph glyph-name="student" unicode="&#59081;" d="M511.80002 357.152622c-148.78547 0-269.473684 120.588224-269.473685 269.473684S362.914559 896 511.80002 896s269.473684-120.588224 269.473684-269.473684c0-56.094522-15.098526-110.5892-53.894737-161.684211h-53.894737c29.397129 45.995508 53.894737 101.89005 53.894737 161.684211 0 119.08837-96.490577 215.578947-215.578947 215.578947s-215.578947-96.490577-215.578948-215.578947 96.490577-215.578947 215.578948-215.578948c267.173909 0 483.752759-217.178791 485.052631-485.052631-1.199883-21.897862 1.599844-32.796797 0-53.894737H942.957914c-1.099893 2.499756-1.099893 51.294991 0 53.894737-1.099893 221.278391-167.483644 403.66058-377.263158 431.157895 0 0.09999-53.894737 0.09999-53.894736 0.09999zM242.326335 249.363148C152.535104 186.56928 93.740846 88.57885 80.642125-20.110536V-127.90001H26.747388v53.894737c0 185.881847 100.990138 347.266087 269.473684 431.157895v-53.894737l-53.894737-53.894737z"  horiz-adv-x="1024" />

    
    <glyph glyph-name="caps" unicode="&#59082;" d="M300.627313 293.645515v-365.052828c0-31.295956 25.296731-56.592687 56.592687-56.592687h309.659987c31.295956 0 56.592687 25.296731 56.592687 56.592687V293.645515H958.942247c31.295956 0 56.592687 25.296731 56.592687 56.592688 0 14.098178-5.299315 27.796408-14.798088 38.195064l-446.942247 489.136794c-21.097274 23.097015-56.892648 24.696809-79.889676 3.599535-1.199845-1.099858-2.39969-2.299703-3.599535-3.599535L23.263154 388.433267c-21.097274-23.097015-19.497481-58.89239 3.599535-79.989664 10.498643-9.59876 24.096886-14.898075 38.295051-14.798088h235.469573z"  horiz-adv-x="1024" />

    
    <glyph glyph-name="bell" unicode="&#59083;" d="M789.60594 838.9L807.00594 869.1c9.5 16.7 30.8 22.6 47.5 13s22.6-30.8 13-47.5c-0.1-0.1-0.1-0.3-0.2-0.4l-17.4-30.1c166.5-96.1 223.5-309 127.4-475.6L872.90594 147.7c66.8-38 90.2-123.1 52.2-189.9-38-66.8-123.1-90.2-189.9-52.2l-1.5 0.9-663.4 383c-66.8 38-90.1 123.1-52 189.9s123.1 90.1 189.9 52.1c0.5-0.3 0.9-0.5 1.4-0.8L314.00594 711.5C410.20594 878 623.10594 935.1 789.60594 838.9zM838.00594 87.4l-60.3 34.8L917.00594 363.4c76.9 133.2 31.3 303.5-101.9 380.4l-60.3 34.8c-133.2 77-303.6 31.3-380.5-101.9L235.10594 435.5l-60.3 34.8c-33.4 19-75.9 7.4-95-26-18.9-33.1-7.6-75.3 25.3-94.6l663.3-382.9c33.4-19 75.9-7.3 94.9 26.1 18.9 33.1 7.6 75.2-25.3 94.5z m-715 62.9c-5.3 18.5 5.4 37.8 23.9 43 17.3 4.9 35.5-4.1 42-20.9 55.3-164.5 180-236.5 384.2-219 19.2 1.1 35.6-13.6 36.7-32.8 1.1-18.4-12.5-34.5-30.8-36.6-234.6-20.1-390 69.7-456 266.3z"  horiz-adv-x="1024" />

    
    <glyph glyph-name="qingqiu" unicode="&#59084;" d="M614.4 742.4c-28.3 0-51.2 22.9-51.2 51.2V844.8H460.8v-51.2c0-28.3-22.9-51.2-51.2-51.2C325.2 692 256 595.8 256 486.4v-256H153.6c-28.3 0-51.2-22.9-51.2-51.2s22.9-51.2 51.2-51.2h716.8c28.3 0 51.2 22.9 51.2 51.2s-22.9 51.2-51.2 51.2H768v256c0 109.4-69.2 205.6-153.6 256z m0 51.2C733.7 734 819.2 620.1 819.2 486.4v-204.8h51.2c56.6 0 102.4-45.8 102.4-102.4S927 76.8 870.5 76.8H153.6c-56.6 0-102.4 45.8-102.4 102.4S97 281.6 153.5 281.6H204.8V486.4c0 133.7 85.5 247.6 204.8 307.2V844.8c0 28.3 22.9 51.2 51.2 51.2h102.4c28.3 0 51.2-22.9 51.2-51.2v-51.2z m51.2-768c0-84.8-68.8-153.6-153.6-153.6s-153.6 68.8-153.6 153.6h51.2c0-56.6 45.8-102.4 102.4-102.4S614.4-31 614.4 25.5v0.1h51.2z"  horiz-adv-x="1024" />

    
    <glyph glyph-name="more" unicode="&#59085;" d="M102.4 281.6C45.8 281.6 0 327.4 0 384s45.8 102.4 102.4 102.4S204.8 440.6 204.8 384 159 281.6 102.4 281.6z m409.6 0c-56.6 0-102.4 45.8-102.4 102.4S455.4 486.4 512 486.4 614.4 440.6 614.4 384 568.6 281.6 512 281.6z m409.6 0c-56.6 0-102.4 45.8-102.4 102.4S865 486.4 921.6 486.4c56.6 0 102.4-45.8 102.4-102.4s-45.8-102.4-102.4-102.4z"  horiz-adv-x="1024" />

    
    <glyph glyph-name="alt" unicode="&#59086;" d="M343.2 800c17.7 0 32-14.3 32-32s-14.3-32-32-32c-70.7 0-128-57.3-128-128 0-32.1-42.1-44.2-59.1-17l-55.2 88.2c-9.4 15-4.8 34.7 10.2 44.1 15 9.4 34.7 4.8 44.1-10.2l14.5-23C201.4 757.2 269 800 343.2 800zM704 0c-17.7 0-32 14.3-32 32s14.3 32 32 32c70.7 0 128 57.3 128 128 0 32.1 42 44.2 59.1 16.9l55.2-88.2c8.8-15.4 3.4-34.9-12-43.6-14.5-8.2-32.8-4-42.3 9.7l-14.5 23C845.9 42.7 778.2 0 704 0zM256 128c-70.7 0-128 57.3-128 128s57.3 128 128 128 128-57.3 128-128-57.3-128-128-128zM0-128c0 141.4 114.6 256 256 256s256-114.6 256-256H0z m768 768c-70.7 0-128 57.3-128 128S697.3 896 768 896s128-57.3 128-128-57.3-128-128-128zM512 384c0 141.4 114.6 256 256 256s256-114.6 256-256H512z"  horiz-adv-x="1024" />

    
    <glyph glyph-name="huyan" unicode="&#59087;" d="M520 67.1c-175 0-316.9 141.8-317 316.9s141.8 316.9 316.9 317h0.1c175 0 316.9-141.9 316.9-317 0-175-141.9-316.9-316.9-316.9z m0 90.5c125 0 226.4 101.3 226.4 226.3 0 125-101.3 226.4-226.3 226.4h-0.1C395 610.3 293.7 509 293.7 384c0-125 101.3-226.3 226.3-226.4zM520.6 896c32.6 0 54.7-19.1 49.5-42.7l-9.5-42.7c-5.2-23.6-23.1-42.7-40-42.7s-34.8 19.1-40 42.7l-9.5 42.7C465.8 876.9 488 896 520.6 896z m357.6-154.1c23.1-23.1 25.2-52.3 4.9-65.2l-36.9-23.5c-20.4-13-46.5-13.8-58.5-1.9-11.9 12-11.1 38.1 1.9 58.5l23.5 36.9c12.9 20.3 42.1 18.2 65.1-4.8zM1024 375.4c0-32.6-19.1-54.8-42.7-49.5l-42.7 9.5c-23.6 5.2-42.7 23.1-42.7 40s19.1 34.8 42.7 40l42.7 9.5c23.6 5.3 42.7-16.9 42.7-49.5zM867.5 17.8c-23.1-23.1-52.3-25.2-65.2-4.8l-23.5 36.8c-13 20.4-13.8 46.5-1.9 58.5 11.9 11.9 38.1 11.1 58.5-1.9l36.8-23.5c20.5-12.9 18.3-42.1-4.7-65.1zM505.4-128c-32.6 0-54.7 19.1-49.5 42.7l9.5 42.7c5.2 23.6 23.1 42.7 40 42.7s34.8-19.1 40-42.7l9.5-42.7c5.2-23.6-17-42.7-49.5-42.7z m-362 156.6c-23 23-25.2 52.2-4.8 65.2l36.9 23.5c20.4 13 46.5 13.8 58.5 1.9 11.9-11.9 11.1-38.1-1.9-58.5l-23.5-36.8c-13-20.6-42.2-18.4-65.2 4.7zM0 390.7c0 32.6 19.1 54.7 42.7 49.5l42.7-9.5c23.6-5.2 42.7-23.2 42.7-40 0-16.9-19.1-34.8-42.7-40l-42.7-9.5C19.1 335.9 0 358.1 0 390.7z m154.1 361.9c23.1 23.1 52.2 25.2 65.2 4.8l23.5-36.8c13-20.4 13.8-46.6 1.9-58.5-11.9-11.9-38.1-11.1-58.5 1.9l-36.9 23.5c-20.3 12.9-18.2 42.1 4.8 65.1z"  horiz-adv-x="1024" />

    
    <glyph glyph-name="add" unicode="&#59088;" d="M460.8 435.2V896h102.4v-460.8H1024v-102.4H563.2V-128H460.8V332.8H0V435.2h460.8z"  horiz-adv-x="1024" />

    
    <glyph glyph-name="ellipse" unicode="&#59089;" d="M532.5 56.3c220.9 0 409.6 152.6 409.6 327.7S753.4 711.7 532.5 711.7C270.6 711.7 81.9 559.1 81.9 384s188.7-327.7 450.6-327.7z m0-81.9C226.1-25.6 0 161.5 0 384s226.1 409.6 532.5 409.6c265.4 0 491.5-187.1 491.5-409.6S797.9-25.6 532.5-25.6z"  horiz-adv-x="1024" />

    
    <glyph glyph-name="blackboard" unicode="&#59090;" d="M118.2 129.5h787.7V699.1H118.2v-569.6z m0 648.3h787.7c43.5 0 78.8-35.3 78.8-78.8v-648.3H39.4V699.1c0 43.5 35.2 78.7 78.8 78.7zM265.8 562h50.6v-256.7h-58.7V468.5h-40.4v44.2h9.5c12.3 0 21.9 3.4 28.8 10.2 6.8 6.8 10.2 16.9 10.2 30.4V562z m136.8-107.9H489v86.6h41.4v-86.6H617v-41.4h-86.7v-86.1h-41.4v86.1h-86.3v41.4zM729.3 562h50.6v-256.7h-58.6V468.5h-40.4v44.2h9.4c12.3 0 21.9 3.4 28.8 10.2 6.9 6.8 10.3 16.9 10.3 30.4l-0.1 8.7zM39.4 108.3h945.2c21.8 0 39.4-17.6 39.4-39.4v-39.4c0-21.8-17.6-39.4-39.4-39.4H39.4C17.6-9.8 0 7.8 0 29.5v39.4c0 21.8 17.6 39.4 39.4 39.4z m157.5 78.8h236.3v-78.8H196.9v78.8z"  horiz-adv-x="1024" />

    
    <glyph glyph-name="lupin" unicode="&#59091;" d="M240.9 534.6c-33.3 0-60.2 27-60.2 60.2 0 33.3 27 60.2 60.2 60.2s60.2-27 60.2-60.2c0.1-33.2-26.9-60.2-60.2-60.2z m542.2 45.2L927.6 643c33.3 14.6 64.4 14.6 84.3-12 7.8-10.4 12-23.1 12-36.1v-421.6c0-33.3-27-60.2-60.2-60.2-13 0-21.5 4.8-36.1 12L783 188.3V113c0-66.5-53.9-120.5-120.5-120.5h-542C53.9-7.5 0 46.4 0 112.9V655.1c0 66.5 53.9 120.5 120.5 120.5h542.1c66.5 0 120.5-53.9 120.5-120.5v-75.3z m-60.3-92.1V655.1c0 33.3-27 60.2-60.2 60.2H120.5c-33.3 0-60.2-27-60.2-60.2V113c0-33.3 27-60.2 60.2-60.2h542.1c33.3 0 60.2 27 60.2 60.2V280.3l240.9-107.2V594.8L722.8 487.7z"  horiz-adv-x="1024" />

    
    <glyph glyph-name="icon_shanchudizhi" unicode="&#58952;" d="M80.842105 734.315789h862.31579a53.894737 53.894737 0 0 0 0-107.789473H80.842105a53.894737 53.894737 0 1 0 0 107.789473z m161.684211-269.473684v-431.157894a53.894737 53.894737 0 0 1 53.894737-53.894737h431.157894a53.894737 53.894737 0 0 1 53.894737 53.894737V464.842105c1.616842 35.947789 19.994947 53.894737 55.134316 53.894737 35.085474 0 52.655158-17.946947 52.655158-53.894737v-485.052631a107.789474 107.789474 0 0 0-107.789474-107.789474H242.526316a107.789474 107.789474 0 0 0-107.789474 107.789474V464.842105c5.497263 35.947789 23.552 53.894737 54.110316 53.894737 30.612211 0 48.505263-17.946947 53.679158-53.894737z m215.578947 431.157895h107.789474a53.894737 53.894737 0 0 0 0-107.789474H458.105263a53.894737 53.894737 0 1 0 0 107.789474zM404.210526 410.947368a53.894737 53.894737 0 0 0 53.894737-53.894736v-215.578948a53.894737 53.894737 0 0 0-107.789474 0v215.578948a53.894737 53.894737 0 0 0 53.894737 53.894736z m215.578948 0a53.894737 53.894737 0 0 0 53.894737-53.894736v-215.578948a53.894737 53.894737 0 0 0-107.789474 0v215.578948a53.894737 53.894737 0 0 0 53.894737 53.894736z"  horiz-adv-x="1024" />

    
    <glyph glyph-name="icon_bianji" unicode="&#58953;" d="M526.174316 754.256842l-254.329263-440.481684 45.97221-189.817263 187.392 55.080421 254.329263 440.481684-233.36421 134.736842zM576.835368 842.105263l233.418106-134.736842a107.789474 107.789474 0 0 0 39.450947-147.240421l-251.149474-434.930526a107.789474 107.789474 0 0 0-62.895158-49.583158l-187.392-55.080421a107.789474 107.789474 0 0 0-135.221894 78.039579L167.073684 288.444632a107.789474 107.789474 0 0 0 11.425684 79.225263l251.149474 434.930526A107.789474 107.789474 0 0 0 576.889263 842.105263zM161.684211-20.210526h700.631578a53.894737 53.894737 0 0 0 0-107.789474H161.684211a53.894737 53.894737 0 0 0 0 107.789474z"  horiz-adv-x="1024" />

    
    <glyph glyph-name="icon_gouwuche" unicode="&#58954;" d="M60.235294 805.647059a30.117647 30.117647 0 0 0 0 60.235294h14.034824a90.352941 90.352941 0 0 0 87.642353-68.427294l135.710117-542.479059a150.588235 150.588235 0 0 1 146.070588-114.025412h582.415059a30.117647 30.117647 0 0 0 0-60.235294h-582.475294a210.823529 210.823529 0 0 0-204.498823 159.62353L103.484235 782.817882a30.117647 30.117647 0 0 1-29.214117 22.829177H60.235294z m241.001412-60.235294a30.117647 30.117647 0 0 0 0 60.235294h704.873412a90.352941 90.352941 0 0 0 86.799058-115.471059l-88.545882-305.995294A90.352941 90.352941 0 0 0 927.623529 319.48800000000006l-500.85647-55.777882a30.117647 30.117647 0 1 0-6.625883 59.873882l500.856471 55.777882a30.117647 30.117647 0 0 1 25.539765 21.564236l88.545882 305.995294a30.117647 30.117647 0 0 1-28.912941 38.490353H301.236706zM361.411765-128a60.235294 60.235294 0 1 0 0 120.470588 60.235294 60.235294 0 0 0 0-120.470588z m542.117647 0a60.235294 60.235294 0 1 0 0 120.470588 60.235294 60.235294 0 0 0 0-120.470588z"  horiz-adv-x="1144" />

    
    <glyph glyph-name="icon_zhiding" unicode="&#58955;" d="M916.360102 756.168657L98.379509-110.042192a56.875302 56.875302 0 0 0-82.81044 78.032914l859.385813 910.004832a56.875302 56.875302 0 0 0 82.696689 0l859.385814-910.004832a56.875302 56.875302 0 0 0-82.696689-78.032914L916.360102 756.168657z"  horiz-adv-x="1933" />

    
    <glyph glyph-name="icon_shouqi" unicode="&#58956;" d="M669.988571 384L266.386286-29.257143a36.571429 36.571429 0 1 1 52.370285-51.2l428.470858 438.857143a36.571429 36.571429 0 0 1 0 51.2l-428.470858 438.857143a36.571429 36.571429 0 0 1-52.370285-51.2L669.988571 384z"  horiz-adv-x="1024" />

    
    <glyph glyph-name="icon_pop_jinshi_small" unicode="&#58957;" d="M512-128A512 512 0 1 0 512 896a512 512 0 0 0 0-1024zM512 725.333333a85.333333 85.333333 0 0 1-85.333333-85.333333v-256a85.333333 85.333333 0 1 1 170.666666 0V640a85.333333 85.333333 0 0 1-85.333333 85.333333z m0-512a85.333333 85.333333 0 1 1 0-170.666666 85.333333 85.333333 0 0 1 0 170.666666z"  horiz-adv-x="1024" />

    
    <glyph glyph-name="input_del" unicode="&#58958;" d="M512-128A512 512 0 1 0 512 896a512 512 0 0 0 0-1024z m0 602.496L376.256 610.304A64 64 0 0 1 285.696 519.68L421.504 384l-135.808-135.744a64 64 0 0 1 90.56-90.56L512 293.504l135.744-135.808a64 64 0 0 1 90.56 90.56L602.496 384l135.808 135.744a64 64 0 1 1-90.56 90.56L512 474.496z"  horiz-adv-x="1024" />

    
    <glyph glyph-name="icon_zhikanlaoshi" unicode="&#58964;" d="M801.391304 584.347826h178.086957a44.521739 44.521739 0 0 0 0-89.043478h-178.086957a44.521739 44.521739 0 0 0 0 89.043478z m-89.043478 178.086957h267.130435a44.521739 44.521739 0 0 0 0-89.043479h-267.130435a44.521739 44.521739 0 0 0 0 89.043479z m178.086957-356.173913h89.043478a44.521739 44.521739 0 0 0 0-89.043479h-89.043478a44.521739 44.521739 0 0 0 0 89.043479zM238.502957 238.502957a267.130435 267.130435 0 1 0 324.385391 0A400.784696 400.784696 0 0 0 801.391304-128h-89.043478a311.652174 311.652174 0 0 1-623.304348 0H0a400.784696 400.784696 0 0 0 238.502957 366.502957zM400.695652 272.695652a178.086957 178.086957 0 1 1 0 356.173913 178.086957 178.086957 0 0 1 0-356.173913z"  horiz-adv-x="1024" />

    


  </font>
</defs>
</svg>
